<svg xmlns="http://www.w3.org/2000/svg" xmlns:xlink="http://www.w3.org/1999/xlink" width="79.642" height="55.741" viewBox="0 0 79.642 55.741">
  <defs>
    <clipPath id="clip-path">
      <rect id="Rectangle_305" data-name="Rectangle 305" width="79.642" height="55.741" fill="#d44035"/>
    </clipPath>
  </defs>
  <g id="Group_251" data-name="Group 251" transform="translate(0)">
    <rect id="Rectangle_268" data-name="Rectangle 268" width="76.204" height="3.538" transform="translate(2 7.916)" fill="#d44035"/>
    <path id="Path_838" data-name="Path 838" d="M39.821,0,0,3.408V8.046H79.642V3.408Z" transform="translate(0 0)" fill="#d44035"/>
    <g id="Group_229" data-name="Group 229" transform="translate(0)">
      <g id="Group_228" data-name="Group 228" clip-path="url(#clip-path)">
        <path id="Path_839" data-name="Path 839" d="M35.415,81.773H91.773V39.486H35.415Zm29.449-7.155a.207.207,0,0,1-.206.206H61.68a.207.207,0,0,1-.206-.206v-.935a.207.207,0,0,1,.206-.206h2.978a.207.207,0,0,1,.206.206Z" transform="translate(-23.347 -26.031)" fill="#d44035"/>
        <rect id="Rectangle_269" data-name="Rectangle 269" width="8.046" height="3.684" transform="translate(2 10.872)" fill="#d44035"/>
        <rect id="Rectangle_270" data-name="Rectangle 270" width="8.046" height="3.003" transform="translate(2 19.041)" fill="#d44035"/>
        <rect id="Rectangle_271" data-name="Rectangle 271" width="3.47" height="3.003" transform="translate(2 15.297)" fill="#d44035"/>
        <rect id="Rectangle_272" data-name="Rectangle 272" width="3.47" height="3.003" transform="translate(6.576 15.297)" fill="#d44035"/>
        <rect id="Rectangle_273" data-name="Rectangle 273" width="3.47" height="3.003" transform="translate(2 22.786)" fill="#d44035"/>
        <rect id="Rectangle_274" data-name="Rectangle 274" width="3.47" height="3.003" transform="translate(6.576 22.786)" fill="#d44035"/>
        <rect id="Rectangle_275" data-name="Rectangle 275" width="8.046" height="3.003" transform="translate(2 26.53)" fill="#d44035"/>
        <rect id="Rectangle_276" data-name="Rectangle 276" width="8.046" height="3.003" transform="translate(2 34.018)" fill="#d44035"/>
        <rect id="Rectangle_277" data-name="Rectangle 277" width="3.47" height="3.003" transform="translate(2 30.274)" fill="#d44035"/>
        <rect id="Rectangle_278" data-name="Rectangle 278" width="3.47" height="3.003" transform="translate(6.576 30.274)" fill="#d44035"/>
        <rect id="Rectangle_279" data-name="Rectangle 279" width="3.47" height="3.003" transform="translate(2 37.762)" fill="#d44035"/>
        <rect id="Rectangle_280" data-name="Rectangle 280" width="3.47" height="3.003" transform="translate(6.576 37.762)" fill="#d44035"/>
        <rect id="Rectangle_281" data-name="Rectangle 281" width="8.046" height="3.003" transform="translate(2 41.506)" fill="#d44035"/>
        <rect id="Rectangle_282" data-name="Rectangle 282" width="8.046" height="3.003" transform="translate(2 48.995)" fill="#d44035"/>
        <rect id="Rectangle_283" data-name="Rectangle 283" width="3.47" height="3.003" transform="translate(2 45.25)" fill="#d44035"/>
        <rect id="Rectangle_284" data-name="Rectangle 284" width="3.47" height="3.003" transform="translate(6.576 45.25)" fill="#d44035"/>
        <rect id="Rectangle_285" data-name="Rectangle 285" width="3.47" height="3.003" transform="translate(2 52.739)" fill="#d44035"/>
        <rect id="Rectangle_286" data-name="Rectangle 286" width="3.47" height="3.003" transform="translate(6.576 52.739)" fill="#d44035"/>
        <rect id="Rectangle_287" data-name="Rectangle 287" width="8.046" height="3.684" transform="translate(70.158 10.872)" fill="#d44035"/>
        <rect id="Rectangle_288" data-name="Rectangle 288" width="8.046" height="3.003" transform="translate(70.158 19.041)" fill="#d44035"/>
        <rect id="Rectangle_289" data-name="Rectangle 289" width="3.47" height="3.003" transform="translate(70.158 15.297)" fill="#d44035"/>
        <rect id="Rectangle_290" data-name="Rectangle 290" width="3.47" height="3.003" transform="translate(74.734 15.297)" fill="#d44035"/>
        <rect id="Rectangle_291" data-name="Rectangle 291" width="3.47" height="3.003" transform="translate(70.158 22.786)" fill="#d44035"/>
        <rect id="Rectangle_292" data-name="Rectangle 292" width="3.47" height="3.003" transform="translate(74.734 22.786)" fill="#d44035"/>
        <rect id="Rectangle_293" data-name="Rectangle 293" width="8.046" height="3.003" transform="translate(70.158 26.53)" fill="#d44035"/>
        <rect id="Rectangle_294" data-name="Rectangle 294" width="8.046" height="3.003" transform="translate(70.158 34.018)" fill="#d44035"/>
        <rect id="Rectangle_295" data-name="Rectangle 295" width="3.47" height="3.003" transform="translate(70.158 30.274)" fill="#d44035"/>
        <rect id="Rectangle_296" data-name="Rectangle 296" width="3.47" height="3.003" transform="translate(74.734 30.274)" fill="#d44035"/>
        <rect id="Rectangle_297" data-name="Rectangle 297" width="3.47" height="3.003" transform="translate(70.158 37.762)" fill="#d44035"/>
        <rect id="Rectangle_298" data-name="Rectangle 298" width="3.47" height="3.003" transform="translate(74.734 37.762)" fill="#d44035"/>
        <rect id="Rectangle_299" data-name="Rectangle 299" width="8.046" height="3.003" transform="translate(70.158 41.506)" fill="#d44035"/>
        <rect id="Rectangle_300" data-name="Rectangle 300" width="8.046" height="3.003" transform="translate(70.158 48.995)" fill="#d44035"/>
        <rect id="Rectangle_301" data-name="Rectangle 301" width="3.47" height="3.003" transform="translate(70.158 45.25)" fill="#d44035"/>
        <rect id="Rectangle_302" data-name="Rectangle 302" width="3.47" height="3.003" transform="translate(74.734 45.25)" fill="#d44035"/>
        <rect id="Rectangle_303" data-name="Rectangle 303" width="3.47" height="3.003" transform="translate(70.158 52.739)" fill="#d44035"/>
        <rect id="Rectangle_304" data-name="Rectangle 304" width="3.47" height="3.003" transform="translate(74.734 52.739)" fill="#d44035"/>
      </g>
    </g>
  </g>
</svg>
