<svg xmlns="http://www.w3.org/2000/svg" xmlns:xlink="http://www.w3.org/1999/xlink" width="91.987" height="75.683" viewBox="0 0 91.987 75.683">
  <defs>
    <clipPath id="clip-path">
      <rect id="Rectangle_267" data-name="Rectangle 267" width="91.986" height="75.682" fill="#d44035"/>
    </clipPath>
  </defs>
  <g id="Group_250" data-name="Group 250" transform="translate(0)">
    <path id="Path_835" data-name="Path 835" d="M43.038,33.314,74.308,14.8l31.269,18.515Z" transform="translate(-28.373 -9.757)" fill="#d44035"/>
    <rect id="Rectangle_265" data-name="Rectangle 265" width="8.046" height="55.663" transform="translate(76.33 20.02)" fill="#d44035"/>
    <path id="Path_836" data-name="Path 836" d="M45.993,0,0,24.209,3.228,30.34,45.993,7.831,88.758,30.34l3.228-6.132Z" transform="translate(0 0.001)" fill="#d44035"/>
    <rect id="Rectangle_266" data-name="Rectangle 266" width="8.046" height="55.663" transform="translate(8.172 20.02)" fill="#d44035"/>
    <g id="Group_226" data-name="Group 226" transform="translate(0 0)">
      <g id="Group_225" data-name="Group 225" clip-path="url(#clip-path)">
        <path id="Path_837" data-name="Path 837" d="M53.528,125.131h56.358V75.007H53.528Zm29.449-7.155a.207.207,0,0,1-.206.206H79.793a.207.207,0,0,1-.206-.206v-.935a.207.207,0,0,1,.206-.206H82.77a.207.207,0,0,1,.206.206Z" transform="translate(-35.288 -49.448)" fill="#d44035"/>
      </g>
    </g>
  </g>
</svg>
