<svg id="Group_253" data-name="Group 253" xmlns="http://www.w3.org/2000/svg" xmlns:xlink="http://www.w3.org/1999/xlink" width="56.358" height="50.124" viewBox="0 0 56.358 50.124">
  <defs>
    <clipPath id="clip-path">
      <rect id="Rectangle_321" data-name="Rectangle 321" width="56.358" height="50.124" fill="#d44035"/>
    </clipPath>
  </defs>
  <rect id="Rectangle_315" data-name="Rectangle 315" width="7.145" height="50.124" transform="translate(15.891)" fill="#d44035"/>
  <rect id="Rectangle_316" data-name="Rectangle 316" width="6.457" height="50.124" fill="#d44035"/>
  <rect id="Rectangle_317" data-name="Rectangle 317" width="7.145" height="50.124" transform="translate(7.601)" fill="#d44035"/>
  <rect id="Rectangle_318" data-name="Rectangle 318" width="7.308" height="50.124" transform="translate(49.05)" fill="#d44035"/>
  <rect id="Rectangle_319" data-name="Rectangle 319" width="7.144" height="50.124" transform="translate(40.761)" fill="#d44035"/>
  <rect id="Rectangle_320" data-name="Rectangle 320" width="7.144" height="50.124" transform="translate(32.471)" fill="#d44035"/>
  <g id="Group_240" data-name="Group 240">
    <g id="Group_239" data-name="Group 239" clip-path="url(#clip-path)">
      <path id="Path_847" data-name="Path 847" d="M70.965,50.124H78.11V0H70.965Zm5.268-7.155a.207.207,0,0,1-.206.206H73.048a.207.207,0,0,1-.206-.206v-.935a.207.207,0,0,1,.206-.206h2.978a.207.207,0,0,1,.206.206Z" transform="translate(-46.784)" fill="#d44035"/>
    </g>
  </g>
</svg>
