<svg xmlns="http://www.w3.org/2000/svg" xmlns:xlink="http://www.w3.org/1999/xlink" width="227" height="56" viewBox="0 0 227 56">
  <defs>
    <clipPath id="clip-path">
      <rect id="Rectangle_255" data-name="Rectangle 255" width="63" height="44.094" fill="#d44035"/>
    </clipPath>
  </defs>
  <g id="Group_263" data-name="Group 263" transform="translate(-97 -14)">
    <g id="Group_263-2" data-name="Group 263" transform="translate(97 20)">
      <rect id="Rectangle_252" data-name="Rectangle 252" width="6.365" height="37.832" transform="translate(55.497 6.262)" fill="#d44035"/>
      <rect id="Rectangle_253" data-name="Rectangle 253" width="6.365" height="37.832" transform="translate(1.582 6.262)" fill="#d44035"/>
      <rect id="Rectangle_254" data-name="Rectangle 254" width="60.281" height="2.799" transform="translate(1.582 6.262)" fill="#d44035"/>
      <path id="Path_826" data-name="Path 826" d="M31.5,0,0,2.7V6.365H63V2.7Z" transform="translate(0 0)" fill="#d44035"/>
      <g id="Group_216" data-name="Group 216" transform="translate(0)">
        <g id="Group_215" data-name="Group 215" clip-path="url(#clip-path)">
          <path id="Path_827" data-name="Path 827" d="M35.415,72.937H80V39.486H35.415Zm23.3-5.66a.164.164,0,0,1-.163.163H56.191a.164.164,0,0,1-.163-.163v-.74a.164.164,0,0,1,.163-.163h2.356a.164.164,0,0,1,.163.163Z" transform="translate(-25.869 -28.843)" fill="#d44035"/>
        </g>
      </g>
    </g>
    <text id="Conturium_Garages" data-name="Conturium
Garages" transform="translate(167 14)" fill="#d44035" font-size="25" font-family="Verdana-Bold, Verdana" font-weight="700" letter-spacing="0.04em"><tspan x="0" y="25">Conturium</tspan><tspan fill="#bed0d4"><tspan x="0" y="50">Garages</tspan></tspan></text>
  </g>
</svg>
