<svg xmlns="http://www.w3.org/2000/svg" xmlns:xlink="http://www.w3.org/1999/xlink" width="79.642" height="55.741" viewBox="0 0 79.642 55.741">
  <defs>
    <clipPath id="clip-path">
      <rect id="Rectangle_255" data-name="Rectangle 255" width="79.642" height="55.741" fill="#d44035"/>
    </clipPath>
  </defs>
  <g id="Group_246" data-name="Group 246" transform="translate(0)">
    <rect id="Rectangle_252" data-name="Rectangle 252" width="8.046" height="47.825" transform="translate(70.157 7.916)" fill="#d44035"/>
    <rect id="Rectangle_253" data-name="Rectangle 253" width="8.046" height="47.825" transform="translate(2 7.916)" fill="#d44035"/>
    <rect id="Rectangle_254" data-name="Rectangle 254" width="76.204" height="3.538" transform="translate(2 7.916)" fill="#d44035"/>
    <path id="Path_826" data-name="Path 826" d="M39.821,0,0,3.408V8.046H79.642V3.408Z" transform="translate(0 0)" fill="#d44035"/>
    <g id="Group_216" data-name="Group 216" transform="translate(0)">
      <g id="Group_215" data-name="Group 215" clip-path="url(#clip-path)">
        <path id="Path_827" data-name="Path 827" d="M35.415,81.773H91.773V39.486H35.415Zm29.449-7.155a.207.207,0,0,1-.206.206H61.68a.207.207,0,0,1-.206-.206v-.935a.207.207,0,0,1,.206-.206h2.978a.207.207,0,0,1,.206.206Z" transform="translate(-23.347 -26.031)" fill="#d44035"/>
      </g>
    </g>
  </g>
</svg>
